HIERARCHY
ROOT butt
{
	OFFSET 0.000000 0.000000 0.000000
	CHANNELS 6 Xposition Yposition Zposition Xrotation Yrotation Zrotation
	JOINT lhip
	{
		OFFSET 0.583813 0.718669 -0.323938
		CHANNELS 6 Xposition Yposition Zposition Xrotation Yrotation Zrotation
		JOINT lknee
		{
			OFFSET 0.553245 0.216339 -1.020714
			CHANNELS 6 Xposition Yposition Zposition Xrotation Yrotation Zrotation
			JOINT lankle
			{
				OFFSET -0.339279 0.080945 -1.465530
				CHANNELS 6 Xposition Yposition Zposition Xrotation Yrotation Zrotation
				End Site
				{
					OFFSET 0.537810 -0.043777 -0.195635
				}
			}
		}
	}
	JOINT rhip
	{
		OFFSET 0.339136 -0.940503 -0.149914
		CHANNELS 6 Xposition Yposition Zposition Xrotation Yrotation Zrotation
		JOINT rknee
		{
			OFFSET 0.601234 -0.223249 -1.073499
			CHANNELS 6 Xposition Yposition Zposition Xrotation Yrotation Zrotation
			JOINT rankle
			{
				OFFSET -0.245263 -0.041399 -1.532960
				CHANNELS 6 Xposition Yposition Zposition Xrotation Yrotation Zrotation
				End Site
				{
					OFFSET 0.653910 0.024899 -0.232875
				}
			}
		}
	}
	JOINT abdomen
	{
		OFFSET 0.907647 0.026340 0.317664
		CHANNELS 6 Xposition Yposition Zposition Xrotation Yrotation Zrotation
		JOINT neck
		{
			OFFSET 1.496963 0.039292 -0.038456
			CHANNELS 6 Xposition Yposition Zposition Xrotation Yrotation Zrotation
			End Site
			{
				OFFSET 2.739308 -0.092250 1.009232
			}
		}
		JOINT lshldr
		{
			OFFSET 1.132326 0.559775 -0.444207
			CHANNELS 6 Xposition Yposition Zposition Xrotation Yrotation Zrotation
			JOINT lelbow
			{
				OFFSET -0.149559 0.286290 -0.912030
				CHANNELS 6 Xposition Yposition Zposition Xrotation Yrotation Zrotation
				JOINT lwrist
				{
					OFFSET 0.485181 -0.390159 0.265472
					CHANNELS 6 Xposition Yposition Zposition Xrotation Yrotation Zrotation
					End Site
					{
						OFFSET 0.527290 -0.521758 -0.124363
					}
				}
			}
		}
		JOINT rshldr
		{
			OFFSET 1.100885 -0.503887 -0.296241
			CHANNELS 6 Xposition Yposition Zposition Xrotation Yrotation Zrotation
			JOINT relbow
			{
				OFFSET -0.198937 -0.642069 -0.689888
				CHANNELS 6 Xposition Yposition Zposition Xrotation Yrotation Zrotation
				JOINT rwrist
				{
					OFFSET 0.636091 0.394674 0.001069
					CHANNELS 6 Xposition Yposition Zposition Xrotation Yrotation Zrotation
					End Site
					{
						OFFSET 0.557086 0.133476 -0.377524
					}
				}
			}
		}
	}
}
MOTION
Frames: 6
Frame Time: 0.033333
0.000000 0.000000 0.000000 -0.839202 -4.267107 20.848077 0.583813 0.718669 -0.323938 -5.455816 -0.942986 -49.568534 0.553245 0.216339 -1.020714 -2.989560 12.894439 47.473322 -0.339279 0.080945 -1.465530 -8.761977 -3.561315 1.387905 0.339136 -0.940503 -0.149914 -9.364492 -3.455565 -69.227505 0.601234 -0.223249 -1.073499 -13.336165 10.465678 60.216683 -0.245263 -0.041399 -1.532960 1.378964 -11.798034 0.195940 0.907647 0.026340 0.317664 0.995194 10.343627 1.072432 1.496964 0.039292 -0.038456 -8.744900 2.529168 -33.533213 1.132326 0.559775 -0.444207 -17.082971 -12.881598 12.164717 -0.149559 0.286290 -0.912030 32.902722 11.757549 -24.136584 0.485181 -0.390159 0.265472 5.777951 -0.506936 -32.994687 1.100885 -0.503887 -0.296241 5.630855 -17.804136 -28.225711 -0.198937 -0.642069 -0.689888 -10.183937 38.351242 -4.056717 0.636091 0.394674 0.001069 -17.517048 -20.233971 38.262122 
0.003000 0.013080 -0.000480 -0.994297 -4.039514 20.710126 0.583813 0.718669 -0.323938 -5.426857 -0.999806 -49.864732 0.553245 0.216339 -1.020714 -3.287372 13.059382 48.073481 -0.339279 0.080945 -1.465530 -8.398133 -4.055727 1.246588 0.339136 -0.940503 -0.149914 -9.318183 -3.747698 -69.252838 0.601234 -0.223249 -1.073499 -13.721754 10.602223 60.586544 -0.245263 -0.041399 -1.532961 1.667300 -12.435418 0.219601 0.907647 0.026340 0.317664 1.030216 9.865909 1.172198 1.496964 0.039292 -0.038456 -8.684977 2.648980 -33.387908 1.132326 0.559775 -0.444207 -16.872213 -12.646085 12.382775 -0.149559 0.286290 -0.912030 32.927642 11.772561 -24.203465 0.485181 -0.390159 0.265472 5.794598 -0.512986 -33.011414 1.100885 -0.503887 -0.296241 6.966428 -18.783410 -27.076545 -0.198937 -0.642069 -0.689888 -10.848649 37.686979 -2.723390 0.636091 0.394674 0.001069 -17.532006 -20.121900 38.458832 
0.006850 0.029160 -0.001530 -1.064156 -3.917611 20.561135 0.583813 0.718669 -0.323938 -5.428215 -0.833119 -50.092922 0.553245 0.216339 -1.020714 -3.506034 13.163106 48.668807 -0.339279 0.080945 -1.465530 -8.012261 -4.686031 1.083093 0.339136 -0.940503 -0.149914 -9.296767 -3.872544 -69.180213 0.601234 -0.223249 -1.073499 -14.094096 10.736086 61.048886 -0.245263 -0.041399 -1.532960 1.847078 -13.072775 0.241262 0.907647 0.026340 0.317664 1.036888 9.483187 1.088557 1.496964 0.039292 -0.038456 -8.596830 2.805750 -33.003693 1.132326 0.559775 -0.444207 -16.648397 -12.372774 12.647602 -0.149559 0.286290 -0.912030 32.930227 11.777060 -24.209802 0.485181 -0.390159 0.265472 5.829677 -0.531015 -33.027984 1.100885 -0.503887 -0.296241 8.726877 -19.793448 -25.602496 -0.198937 -0.642069 -0.689888 -12.465384 36.767977 0.200165 0.636091 0.394674 0.001069 -17.487041 -19.979020 38.816286 
0.012820 0.047230 -0.002210 -1.310796 -3.949863 20.463088 0.583813 0.718669 -0.323938 -5.213218 -0.512957 -50.389396 0.553245 0.216339 -1.020714 -3.679794 13.287894 49.316080 -0.339279 0.080945 -1.465530 -7.747239 -5.325081 0.949486 0.339136 -0.940503 -0.149914 -9.017166 -3.872817 -69.038077 0.601234 -0.223249 -1.073499 -14.470567 10.870651 61.343944 -0.245263 -0.041399 -1.532960 1.933871 -13.797284 0.279894 0.907647 0.026340 0.317664 1.341748 9.365623 0.893863 1.496964 0.039292 -0.038456 -8.463971 2.586952 -32.638332 1.132326 0.559775 -0.444207 -16.473160 -12.242846 12.778063 -0.149559 0.286290 -0.912030 32.867031 11.737426 -24.302798 0.485181 -0.390159 0.265472 5.973151 -0.595919 -33.067347 1.100885 -0.503887 -0.296241 10.624513 -20.996918 -23.809864 -0.198937 -0.642069 -0.689888 -13.655122 36.152956 2.314862 0.636091 0.394674 0.001069 -17.721961 -19.767035 39.048448 
0.020540 0.067240 -0.002030 -1.684461 -3.743582 20.327589 0.583813 0.718669 -0.323938 -4.931058 -0.388496 -50.653216 0.553245 0.216339 -1.020714 -3.817040 13.377960 50.070232 -0.339279 0.080945 -1.465530 -7.721776 -5.991838 0.843369 0.339136 -0.940503 -0.149914 -8.683391 -4.103724 -68.841955 0.601234 -0.223249 -1.073499 -14.868996 11.014430 61.804278 -0.245263 -0.041399 -1.532960 1.993573 -14.620672 0.317270 0.907647 0.026340 0.317664 1.633186 8.973041 0.705814 1.496964 0.039292 -0.038456 -8.248778 2.323275 -32.297168 1.132326 0.559775 -0.444207 -16.235035 -12.041641 12.965480 -0.149559 0.286290 -0.912030 32.943850 11.793244 -24.597661 0.485181 -0.390159 0.265472 6.046080 -0.628757 -33.111808 1.100885 -0.503887 -0.296241 13.002823 -22.440269 -21.599688 -0.198937 -0.642069 -0.689888 -14.402173 35.571977 3.756306 0.636091 0.394674 0.001069 -18.112000 -19.478924 39.253295 
0.029030 0.089070 -0.000790 -2.225330 -3.239038 20.134923 0.583813 0.718669 -0.323938 -4.618134 -0.562093 -50.821921 0.553245 0.216339 -1.020714 -3.918722 13.529590 50.890353 -0.339279 0.080945 -1.465530 -7.924800 -6.582156 0.777635 0.339136 -0.940503 -0.149914 -8.260618 -4.693908 -68.493875 0.601234 -0.223249 -1.073499 -15.307801 11.170787 62.322225 -0.245263 -0.041399 -1.532960 1.951463 -15.394461 0.348665 0.907647 0.026340 0.317664 2.011928 8.264183 0.450777 1.496964 0.039292 -0.038456 -8.067387 1.938470 -31.815431 1.132326 0.559775 -0.444207 -15.975097 -11.753937 13.155184 -0.149559 0.286290 -0.912030 33.088886 11.894770 -24.932909 0.485181 -0.390159 0.265472 6.118960 -0.661715 -33.156252 1.100886 -0.503887 -0.296241 16.010489 -24.047336 -18.761727 -0.198937 -0.642069 -0.689888 -14.811458 34.820386 4.872350 0.636091 0.394674 0.001069 -18.292929 -19.420330 39.610733 
